<svg xmlns="http://www.w3.org/2000/svg" version="1.0" viewBox="0 0 188 188"><path fill-opacity=".5" d="M54.7 37.7c7.3.2 19.3.2 26.6 0 7.2-.1 1.3-.3-13.3-.3s-20.5.2-13.3.3m42.6 0c1.5.2 3.9.2 5.5 0 1.5-.2.2-.4-2.8-.4s-4.3.2-2.7.4m29 0c11.4.2 30 .2 41.5 0 11.4-.1 2-.2-20.8-.2s-32.2.1-20.7.2M37.4 68c0 14.6.2 20.5.3 13.2.2-7.2.2-19.2 0-26.5-.1-7.2-.3-1.3-.3 13.3m80.4 13.7c.7.3 1.6.2 1.9-.1.4-.3-.2-.6-1.3-.5-1.1 0-1.4.3-.6.6M37.3 100c0 3 .2 4.3.4 2.7.2-1.5.2-3.9 0-5.5-.2-1.5-.4-.2-.4 2.8m.2 47c0 22.8.1 32.2.2 20.8.2-11.5.2-30.1 0-41.5-.1-11.5-.2-2.1-.2 20.7m48.3 14.7c.7.3 1.6.2 1.9-.1.4-.3-.2-.6-1.3-.5-1.1 0-1.4.3-.6.6"/><path d="M38 113v75h150V38H38zm93-61.9c11.8 3.2 18.5 7.3 28.7 17.5 7.9 7.7 9.9 10.4 13.2 17.5 4.8 10.5 6.1 16.4 6.1 28.7 0 15-3.6 26.7-11.5 37.7-7.5 10.5-18.6 19.3-30 23.7-7.9 3-8.2 2.6-8.7-13.7-.3-12-.6-13.7-2.6-16.5-2.2-2.9-2.2-3-.3-3 1.2 0 5.1-1 8.8-2.2 13.1-4.3 19.3-13.6 19.3-28.9 0-6.9-.9-10.2-4.3-15.1-1.4-2.1-1.7-3.8-1.2-7 .3-2.4.2-6.1-.2-8.3-1.1-5.2-3.3-5.5-11-1.7l-5.8 2.8-18.5-.2c-17.6-.2-18.8-.3-24-2.8-9.8-4.6-11.3-3.4-10.9 8.9.2 5.2-.2 6.8-2.2 9.6-2 2.9-2.5 4.8-2.8 12.3-.4 10.2.8 15.1 5 21.3 3.3 4.7 10.2 8.6 18.6 10.3l5.2 1.1-2.2 4.7c-1.2 2.6-2.6 5-3.2 5.4-.5.4-3.6.8-6.9.8h-5.9l-5.6-5.9c-5.2-5.5-10.2-8.3-11.8-6.7-.4.4.3 1.3 1.5 2.2 1.3.9 4.1 4.5 6.3 8 5 7.8 7.7 9.4 16.4 9.4h6.6l-.3 7.8-.3 7.7-3.2.3c-8.3.8-28.9-14.7-36.7-27.6-10.4-17.4-12.5-39.8-5.4-58.2 7-18.2 23.5-33.6 42.2-39.6 9.9-3.1 27-3.3 37.6-.3"/><path fill-opacity=".9" d="M72.2 112c0 1.4.2 1.9.5 1.2.2-.6.2-1.8 0-2.5-.3-.6-.5-.1-.5 1.3"/><path fill-opacity=".8" d="M71.9 62.7c-1.3 1.6-1.2 1.7.4.4.9-.7 1.7-1.5 1.7-1.7 0-.8-.8-.3-2.1 1.3m.2 52.9c0 1.1.3 1.4.6.6.3-.7.2-1.6-.1-1.9-.3-.4-.6.2-.5 1.3m73.8 19.1c-1.3 1.6-1.2 1.7.4.4s2.1-2.1 1.3-2.1c-.2 0-1 .8-1.7 1.7M80 150.4c0 .2.8 1 1.8 1.7 1.5 1.3 1.6 1.2.3-.4s-2.1-2.1-2.1-1.3m80.5 9.8-4 4.3 4.3-4c2.3-2.1 4.2-4 4.2-4.2 0-.8-.9 0-4.5 3.9"/><path fill-opacity=".7" d="M112.8 81.7c.7.3 1.6.2 1.9-.1.4-.3-.2-.6-1.3-.5-1.1 0-1.4.3-.6.6M77.2 86c0 1.4.2 1.9.5 1.2.2-.6.2-1.8 0-2.5-.3-.6-.5-.1-.5 1.3m77 26c0 1.9.2 2.7.5 1.7.2-.9.2-2.5 0-3.5-.3-.9-.5-.1-.5 1.8m-107.1 8.6c0 1.1.3 1.4.6.6.3-.7.2-1.6-.1-1.9-.3-.4-.6.2-.5 1.3m44.2 41.1c.9.2 2.3.2 3 0 .6-.3-.1-.5-1.8-.5-1.6 0-2.2.2-1.2.5"/><path fill="gray" fill-opacity=".6" d="M126.5 144c-.3.6.1.7.9.4 1.8-.7 2.1-1.4.7-1.4-.6 0-1.3.4-1.6 1M76 157.4c0 .2.8 1 1.8 1.7 1.5 1.3 1.6 1.2.3-.4s-2.1-2.1-2.1-1.3"/><path fill="gray" fill-opacity=".7" d="M109.3 49.7c1.5.2 3.7.2 5 0 1.2-.2 0-.4-2.8-.4-2.7 0-3.8.2-2.2.4M76.2 86c0 1.4.2 1.9.5 1.2.2-.6.2-1.8 0-2.5-.3-.6-.5-.1-.5 1.3m20 81c0 1.9.2 2.7.5 1.7.2-.9.2-2.5 0-3.5-.3-.9-.5-.1-.5 1.8"/><path fill="#404040" fill-opacity=".5" d="M149.1 86.6c0 1.1.3 1.4.6.6.3-.7.2-1.6-.1-1.9-.3-.4-.6.2-.5 1.3m-19.8 75.9c0 3.3.2 4.5.4 2.7s.2-4.5 0-6-.4 0-.4 3.3"/><path fill-opacity=".6" d="M109.8 81.7c.7.3 1.6.2 1.9-.1.4-.3-.2-.6-1.3-.5-1.1 0-1.4.3-.6.6m-32.7 7.9c0 1.1.3 1.4.6.6.3-.7.2-1.6-.1-1.9-.3-.4-.6.2-.5 1.3m77 18c0 1.1.3 1.4.6.6.3-.7.2-1.6-.1-1.9-.3-.4-.6.2-.5 1.3M47.3 115c0 2.5.2 3.5.4 2.2.2-1.2.2-3.2 0-4.5-.2-1.2-.4-.2-.4 2.3M74 143.4c0 .2.8 1 1.8 1.7 1.5 1.3 1.6 1.2.3-.4s-2.1-2.1-2.1-1.3"/><path fill="#404040" fill-opacity=".4" d="M129.1 169.6c0 1.1.3 1.4.6.6.3-.7.2-1.6-.1-1.9-.3-.4-.6.2-.5 1.3"/><path fill="#BFBFBF" fill-opacity=".9" d="M123.6 53.2c.3.5 1 .6 1.5.3 1.3-.9 1.1-1.2-.6-1.2-.8 0-1.2.4-.9.9m13.4 3.9c0 .5.5.7 1 .4.6-.3 1-.8 1-1.1 0-.2-.4-.4-1-.4-.5 0-1 .5-1 1.1m13 7.3c0 .3.9 1 2 1.6s2 .8 2 .6c0-.3-.9-1-2-1.6s-2-.8-2-.6m8 6.5c0 .6.4 1.3 1 1.6s.7-.1.4-.9c-.7-1.8-1.4-2.1-1.4-.7M56.5 86c.3.5.8 1 1.1 1 .2 0 .4-.5.4-1 0-.6-.5-1-1.1-1-.5 0-.7.4-.4 1m99.5 33.7c0 1.5 1.8 3.5 2.3 2.7.3-.5-.1-1.5-.9-2.2s-1.4-.9-1.4-.5m11 27.3c-.9.6-1 1-.3 1 .6 0 1.5-.5 1.8-1 .8-1.2.4-1.2-1.5 0m-72.3 2.1c.7.7 1.5 1 1.8.7s-.2-.9-1.2-1.2c-1.4-.6-1.5-.5-.6.5m63.2 10.6c-1.3 1.6-1.2 1.7.4.4s2.1-2.1 1.3-2.1c-.2 0-1 .8-1.7 1.7M131 170.9c0 .6.4 1.3 1 1.6s.7-.1.4-.9c-.7-1.8-1.4-2.1-1.4-.7"/><path fill="gray" d="M98.5 51.5c-4.4 1.3-4.6 1.4-1.2 1 2-.2 3.7 0 3.7.6 0 .5.5.9 1.1.9.5 0 .7-.5.3-1.2-.5-.8-.2-.9.9-.5.9.3 1.9.2 2.2-.3.7-1.2 16.5-1.4 16.5-.3 0 .5 1 .9 2.3.9 1.2.1 4.4.6 7.2 1.2 6.7 1.4 6.9.7.3-1.3-7.4-2.3-26.7-2.9-33.3-1m-12.3 3.8c-1.2.7-2 1.6-1.6 2 .4.3 1.4.2 2.4-.3s2-.6 2.4-.3c.3.3.6-.1.6-1 0-2-.7-2.1-3.8-.4m52.1 1.2c0 1 .6 1.3 1.9.9 1-.3 1.8-.1 1.8.5s.9 1.1 1.9 1.1c1.1 0 2.1.5 2.3 1.1.2.7 1 1 1.7.8.7-.3-.9-1.7-3.7-3.2-5.8-3.2-5.9-3.2-5.9-1.2m-60.9 4c-1 .8-1.4 1.5-.8 1.5.5 0 1.9-.7 3-1.5 1-.8 1.4-1.5.8-1.5-.5 0-1.9.7-3 1.5m72.6 2.6c0 .6.9 1.3 2 1.6s2.3 1.6 2.6 2.9 1.2 2.4 2 2.4c2.1 0 5.4 3.7 5.4 6 0 2.1.7 2.5 2.7 1.2.8-.5-.6-2.7-4.6-6.9-6.2-6.5-10.1-9.3-10.1-7.2m-78 1.4c-.8.9-.8 1.5-.2 1.5 1.2 0 2.6-1.9 1.9-2.6-.2-.2-1 .2-1.7 1.1M67.5 69c-.3.5-.1 1 .4 1 .6 0 1.1-.5 1.1-1 0-.6-.2-1-.4-1-.3 0-.8.4-1.1 1M64 72.5c-.8.9-.8 1.5-.2 1.5 1.2 0 2.6-1.9 1.9-2.6-.2-.2-1 .2-1.7 1.1m12.6 3.2c-.3 1-1 2.8-1.6 4-.7 1.8-.6 2.3.5 2.3.9 0 1.5-1 1.5-2.4 0-3.5 2.1-4.8 6.9-4 2.2.4 4.1 1 4.1 1.5s.5.9 1 .9c.6 0 1-.9 1-2 0-1.8-.7-2-6.4-2-5.2 0-6.5.3-7 1.7m61.7-.1c-.2.7-1.7 1.4-3.2 1.7-1.6.3-3.5 1.2-4.2 2-.8.8-2.1 1.6-2.9 2-1.3.5-1.3.6 0 .6.8 0 4.2-1.3 7.4-2.9 3.4-1.7 7.5-3 9.6-3 4.5 0 5 1.1 5 11.6 0 4.9.4 7.5 1.4 8.3.8.7 1.7 2.3 2.1 3.8.9 3.8 1.7 2.1.9-2.2-.4-2.5-1.1-3.5-2-3.1-1.1.4-1.4-1-1.4-6.8 0-4-.5-8.6-1-10.2-1-2.7-1.4-3-6.1-2.9-2.9 0-5.3.5-5.6 1.1m-79.2 3.3c-.6 1.1-.7 2.2-.2 2.5s1.1-.4 1.4-1.6c.8-3 .1-3.5-1.2-.9m34.5 0c-.3.5.2 1.2 1.2 1.6 3.1 1.4 4.8 1.2 4.9-.7.1-1.4-.5-1.8-2.7-1.8-1.6 0-3.1.4-3.4.9m10.7-.1c-1.8.2-3.3.7-3.3 1 0 .4 5.6.8 12.5.8s12.5-.4 12.5-.8-.6-.9-1.2-1c-2.3-.3-17.3-.3-20.5 0m62.7 1.5c0 .9.3 1.7.8 1.7.4 0 1.5 1.8 2.5 4 .9 2.2 1.9 4 2.2 4 .7 0-2.1-6.6-4-9.2-1.2-1.9-1.5-1.9-1.5-.5m-93 4.6c0 .6.5 1.3 1 1.6.6.3 1-.1 1-.9 0-.9-.4-1.6-1-1.6-.5 0-1 .4-1 .9M54.5 88c.3.5 1 1 1.6 1 .5 0 .9-.5.9-1 0-.6-.7-1-1.6-1-.8 0-1.2.4-.9 1m-3 6.5c-.9 3.1-1.4 5.9-1.1 6.2.3.4.6-.1.6-1 0-1 .4-1.7.9-1.7.8 0 2.3-8.1 1.6-8.8-.2-.2-1.1 2.1-2 5.3m23.1-2.4c-.9 4.7-.7 5.6.9 3.5 1.7-2.2 2-5.2.6-6-.5-.3-1.1.8-1.5 2.5m96.5.5c0 1.1.3 1.4.6.6.3-.7.2-1.6-.1-1.9-.3-.4-.6.2-.5 1.3m3.4 8c.4 4.3 2.1 6.6 1.9 2.6-.2-5.3-.4-6.2-1.3-6.2-.5 0-.7 1.6-.6 3.6m-104-.6c-.3 1.1-.2 2.7.3 3.5.6 1.3 1.1.8 1.9-2 .9-2.8.8-3.5-.2-3.5-.8 0-1.6.9-2 2m85.8 2.7c-.7.2-1.3 2-1.3 3.9 0 2.2.4 3.3 1 2.9s.8-1.6.4-2.7c-.3-1.1-.2-1.8.3-1.5s.9-.3.9-1.4c0-1 0-1.9-.1-1.8zM70.2 109c0 1.4.2 1.9.5 1.2.2-.6.2-1.8 0-2.5-.3-.6-.5-.1-.5 1.3m106.8 5.5c0 4.1-.4 7.5-.9 7.5s-1.1.7-1.5 1.5c-.4 1.3-.2 1.4 1.4.5 1.7-.9 2-2.1 2-9 0-4.4-.2-8-.5-8s-.5 3.4-.5 7.5M48.3 113c0 3 .2 4.3.4 2.7.2-1.5.2-3.9 0-5.5-.2-1.5-.4-.2-.4 2.8m107.2 3.7c-1.7 14.4-9.3 23-23.2 26.2-5.1 1.3-5.2 1.3-4 3.9s1.2 2.6 1.5.3c.2-1.5.8-2.1 1.8-1.7.8.3 1.4.1 1.4-.3 0-1.2 5.6-3.1 9.2-3.1 2.1 0 3.1-.6 3.5-2 .3-1.1 1.4-2 2.4-2 1.1 0 1.9-.7 1.9-1.8 0-.9.9-2.8 2-4.2s2-3 2-3.7c0-.6.5-2.4 1.2-4 1.2-2.9 2.3-13.3 1.5-13.3-.3 0-.9 2.6-1.2 5.7m-85.3-1.2c0 1.6.2 2.2.5 1.2.2-.9.2-2.3 0-3-.3-.6-.5.1-.5 1.8m-.2 7.3c0 1.1.9 2.7 1.9 3.6 1.9 1.8 1.9 1.7.9-1.8-1.2-3.8-2.8-4.8-2.8-1.8m105.6 3.7c-.3.9-.6 2.6-.5 3.8.1 1.6.4 1.2 1-1.2 1-3.4.6-5.5-.5-2.6m-126.5.2c0 .4.4 1.7.9 2.8.8 1.9.9 1.9.9-.2.1-1.2-.3-2.5-.9-2.8-.5-.3-1-.3-.9.2m3 7.1c-.1 3.7 7.9 20.6 8.7 18.2.3-.7 0-1.5-.4-1.9-1.6-1.1-7.3-13.5-7.7-16.6-.4-3-.4-3-.6.3m22.5-2c-.3.6-.1 1.4.5 1.7 1.5 1 2.5-.3 1.2-1.6-.7-.7-1.3-.7-1.7-.1M173 136c0 1.1-.4 2-1 2-.5 0-1 1.2-.9 2.7 0 2.6.2 2.6 1.9-1.2 2.2-4.7 2.3-5.5 1-5.5-.5 0-1 .9-1 2m-94.4.4c.3.9 1.2 1.6 2 1.6s1.4.8 1.4 1.8c0 1.4.9 1.8 3.8 2l3.7.2-4.5-2.6c-2.5-1.4-5.1-3-5.8-3.6-.9-.8-1.1-.7-.6.6m-16 2.5c-.3.5.1 1.1.9 1.5.8.3 1.7 0 2.1-.5.6-1.1 3.3-.8 6.7.6 1.2.5 1.7.3 1.7-.9 0-1.3-1.1-1.6-5.4-1.6-3 0-5.7.4-6 .9M62 143c0 1.5.9 2.2 3.1 2.7 1.9.3 3.4 1.4 3.6 2.5.3 1 .9 1.8 1.4 1.8s.8.3.8.7c-.4 2.2.3 3.3 1.7 3.3 1.5 0 1.5-.3-.1-2.8-2-3.2-8.7-10.1-9.7-10.2-.5 0-.8.9-.8 2m13-.6c0 .2.7.9 1.5 1.6 1.2 1 1.5 1 1.5-.4 0-.9-.7-1.6-1.5-1.6s-1.5.2-1.5.4m15.8.3c1 .4 1 .8 0 2.1-1.1 1.3-1 1.5 1 1 1.5-.4 2.6 0 3.6 1.3 1.3 1.9 1.4 1.9 2.9-.5 1.6-2.4 1.6-2.4-2.8-3.5-4.5-1.1-7-1.4-4.7-.4M79 146.9c0 .5.5 1.3 1 1.6.6.3 1 .2 1-.4 0-.5-.4-1.3-1-1.6-.5-.3-1-.2-1 .4m87.3 2.5c-2.8 3.1-5.2 7.6-4 7.6.2 0 2.1-2.5 4.1-5.5s3.5-5.5 3.4-5.5c-.2 0-1.7 1.5-3.5 3.4m-73.7 1.7c-1.4 1.4-1.6 1.9-.5 1.9 2.4 0 4.5-1.8 3.4-2.8-.6-.6-1.7-.3-2.9.9m-9.1.5c2.4 1.8 6.5 1.8 6.5.1 0-.8-1.5-1.3-4.2-1.3-3.8-.1-4 0-2.3 1.2m46.7 10.1c-.1 6.1.1 11.8.4 12.7.9 2.4 3.7 2 10.7-1.5 6.3-3.2 12.9-7.8 9.4-6.6-1 .4-2.5.7-3.3.7s-1.4.7-1.4 1.5c0 1-1.4 1.7-4 2.1-2.4.4-4 1.2-4 2 0 .9-1.1 1.4-3 1.4-3.6 0-3.9-.9-4.3-14l-.3-9.5zm-67.1-6c2.8 3.8 6.5 7.6 9.4 9.6 1.9 1.3 2.5 1.5 1.7.5-1-1.3-1-1.9.3-3.2.9-.8 2.2-1.3 3-1 2.2.9 1.8-.4-1-3.8l-2.5-3v3.7c0 3.2-.3 3.6-2.2 3.3-1.6-.2-2.2-.9-2-2.1.2-1.1-.4-1.7-1.6-1.7-1.1 0-2.2-.9-2.5-2s-1.3-2-2.2-2c-1.5 0-1.6.2-.4 1.7m95.8 4c-1.3 1.6-1.2 1.7.4.4s2.1-2.1 1.3-2.1c-.2 0-1 .8-1.7 1.7m-76.1 3c.7.3 1.6.2 1.9-.1.4-.3-.2-.6-1.3-.5-1.1 0-1.4.3-.6.6m71.7.4c-1.1 1.7.1 2.1 1.5.4.8-.9.8-1.5.2-1.5s-1.4.5-1.7 1.1m-68.2 1.4c0 .8.6 1.5 1.3 1.5.8 0 1.1-.6.8-1.5-.4-.8-.9-1.5-1.3-1.5s-.8.7-.8 1.5m4.3 0c.4.8 1.2 1.5 1.9 1.5 3.2 0 3.4 7.3.3 8.8-2.3 1-2.3 1.1.5 1.1 2.7.1 2.7 0 2.7-6.4V163h-3c-2.2 0-2.8.4-2.4 1.5M83 172c1.9 1.3 3 1.3 3 0 0-.6-1-1-2.2-1-1.9 0-2 .2-.8 1"/><path fill="gray" fill-opacity=".9" d="m66.4 69.2-1.9 2.3 2.3-1.9c2.1-1.8 2.7-2.6 1.9-2.6-.2 0-1.2 1-2.3 2.2m88.8 43.8c0 1.9.2 2.7.5 1.7.2-.9.2-2.5 0-3.5-.3-.9-.5-.1-.5 1.8M78 134.4c0 .2.8 1 1.8 1.7 1.5 1.3 1.6 1.2.3-.4s-2.1-2.1-2.1-1.3"/><path fill="#BFBFBF" fill-opacity=".7" d="M88 57c0 .5.5 1 1.1 1 .5 0 .7-.5.4-1-.3-.6-.8-1-1.1-1-.2 0-.4.4-.4 1m-8.2 4.7c.7.3 1.6.2 1.9-.1.4-.3-.2-.6-1.3-.5-1.1 0-1.4.3-.6.6m-3.2 1.6c.3 1 .9 1.5 1.2 1.2s0-1.1-.7-1.8c-1-.9-1.1-.8-.5.6m74.7 23.2c0 4.4.2 6.1.4 3.7.2-2.3.2-5.9 0-8-.2-2-.4-.1-.4 4.3m-96 .2q1.8.45 1.2 2.1c-.5 1.3-.3 1.4.6.5 1.4-1.4.3-3.3-1.9-3.2-1.5.1-1.4.2.1.6M74 88.5c0 .8.2 1.5.4 1.5s.6-.7 1-1.5c.3-.8.1-1.5-.4-1.5-.6 0-1 .7-1 1.5m97.7 2.6c.7.7 1.5 1 1.8.7s-.2-.9-1.2-1.2c-1.4-.6-1.5-.5-.6.5m-16.6 10.5c0 1.1.3 1.4.6.6.3-.7.2-1.6-.1-1.9-.3-.4-.6.2-.5 1.3m18.9 2.9c0 .8.4 1.5 1 1.5.5 0 .7-.7.4-1.5-.4-.8-.8-1.5-1-1.5s-.4.7-.4 1.5m-17.5 2.5c.3.5.8 1 1.1 1 .2 0 .4-.5.4-1 0-.6-.5-1-1.1-1-.5 0-.7.4-.4 1m19.7 2.5c0 1.6.2 2.2.5 1.2.2-.9.2-2.3 0-3-.3-.6-.5.1-.5 1.8m-127 .5c0 1.4.2 1.9.5 1.2.2-.6.2-1.8 0-2.5-.3-.6-.5-.1-.5 1.3m108 5c0 1.4.2 1.9.5 1.2.2-.6.2-1.8 0-2.5-.3-.6-.5-.1-.5 1.3m-108 1c0 1.4.2 1.9.5 1.2.2-.6.2-1.8 0-2.5-.3-.6-.5-.1-.5 1.3m127 2c0 1.9.2 2.7.5 1.7.2-.9.2-2.5 0-3.5-.3-.9-.5-.1-.5 1.8m-1.9 5.8c0 1.2.5 2.2.9 2.2 1.1 0 1-1.2-.2-3-.7-1.2-.9-1-.7.8m-101.8 3.1c-.3.5-.2 1.2.3 1.5s.9-.1.9-.9c0-1.7-.3-1.9-1.2-.6m-19.4 5.7c0 1.1.3 1.4.6.6.3-.7.2-1.6-.1-1.9-.3-.4-.6.2-.5 1.3m97.8 1.1c-1.3 1.6-1.2 1.7.4.4s2.1-2.1 1.3-2.1c-.2 0-1 .8-1.7 1.7m21.2 1.9c0 1.1.3 1.4.6.6.3-.7.2-1.6-.1-1.9-.3-.4-.6.2-.5 1.3m-117 4c0 1.1.3 1.4.6.6.3-.7.2-1.6-.1-1.9-.3-.4-.6.2-.5 1.3m115.1.9c0 1.6.2 2.2.5 1.2.2-.9.2-2.3 0-3-.3-.6-.5.1-.5 1.8M89 142.9c0 .6.4 1.3 1 1.6s.7-.1.4-.9c-.7-1.8-1.4-2.1-1.4-.7m3 7.1c-.8.5-1.2 1.2-.9 1.5.4.3 1.2-.1 1.9-1 1.4-1.7 1.1-1.9-1-.5m39.3 8c0 3.6.2 5 .4 3.2.2-1.7.2-4.7 0-6.5-.2-1.7-.4-.3-.4 3.3m-58.7-2.7c.3 1 .9 1.5 1.2 1.2s0-1.1-.7-1.8c-1-.9-1.1-.8-.5.6m9.1 7.8c.7.7 1.5 1 1.8.7s-.2-.9-1.2-1.2c-1.4-.6-1.5-.5-.6.5"/><path fill="#BFBFBF" fill-opacity=".8" d="M117.8 51.7c.6.2 1.8.2 2.5 0 .6-.3.1-.5-1.3-.5s-1.9.2-1.2.5m-15.8.8c0 .7 3 1.3 3.4.7.3-.4-.4-.9-1.5-.9-1-.1-1.9 0-1.9.2m-20.7 6c-.3.9-.3 1.9.1 2.2.3.4.6-.1.6-1 0-.8.8-1.8 1.8-2 1.6-.4 1.6-.5-.1-.6-1 0-2 .6-2.4 1.4m58.7-1.1c0 .2.7.9 1.5 1.6 1.3 1.1 1.4 1 .9-.4s-2.4-2.3-2.4-1.2m5 2.5c0 .6.4 1.3 1 1.6s.7-.1.4-.9c-.7-1.8-1.4-2.1-1.4-.7m4 13.8c.5.2.8.9.5 1.3-.3.5-.1 1.1.4 1.4.5.4.8-.2.7-1.1-.2-.9-.8-1.8-1.5-1.9-.6-.1-.7 0-.1.3M60.5 76c-.3.5-.1 1 .4 1 .6 0 1.1-.5 1.1-1 0-.6-.2-1-.4-1-.3 0-.8.4-1.1 1m61.1 1.9c1.7.4 3.6 1.1 4.2 1.5.7.4 1.2.3 1.2-.2 0-1.1-3.5-2.2-6.5-2.1-1.2.1-.8.4 1.1.8m44.1 1.1c.3 1.1.7 2 .9 2s.4-.9.4-2-.4-2-.9-2-.7.9-.4 2M60 80c0 .5.5 1 1 1 .6 0 1-.5 1-1 0-.6-.4-1-1-1-.5 0-1 .4-1 1m-2.7 2.5c-.3.9-.3 1.8-.1 2.1.3.3.8-.4 1.1-1.6.6-2.3-.1-2.7-1-.5m17.2.5c-.3.5-.1 1 .4 1 .6 0 1.1-.5 1.1-1 0-.6-.2-1-.4-1-.3 0-.8.4-1.1 1M73 86c0 .5.5 1 1.1 1 .5 0 .7-.5.4-1-.3-.6-.8-1-1.1-1-.2 0-.4.4-.4 1m95.7.1c.7.7 1.5 1 1.8.7s-.2-.9-1.2-1.2c-1.4-.6-1.5-.5-.6.5m-115 3c.7.7 1.5 1 1.8.7s-.2-.9-1.2-1.2c-1.4-.6-1.5-.5-.6.5m116.4 1.5c0 1.1.3 1.4.6.6.3-.7.2-1.6-.1-1.9-.3-.4-.6.2-.5 1.3m1.6 2.7c-.3.7.3 1.3 1.3 1.3s1.6-.6 1.3-1.3-.9-1.3-1.3-1.3-1 .6-1.3 1.3m-15.7 8.1c0 .2.7.7 1.6 1 .8.3 1.2.2.9-.4-.6-1-2.5-1.4-2.5-.6m-107.5 4.5c-.3.5-.1 1.2.5 1.6.5.3 1-.1 1-.9 0-1.8-.6-2.1-1.5-.7m20.6 3.7c0 1.1.3 1.4.6.6.3-.7.2-1.6-.1-1.9-.3-.4-.6.2-.5 1.3m106.5 3.9c-.3.8-.1 1.5.4 1.5.6 0 1-.7 1-1.5s-.2-1.5-.4-1.5-.6.7-1 1.5M69.2 116c0 1.4.2 1.9.5 1.2.2-.6.2-1.8 0-2.5-.3-.6-.5-.1-.5 1.3m87.8 4c0 .5.5 1 1.1 1 .5 0 .7-.5.4-1-.3-.6-.8-1-1.1-1-.2 0-.4.4-.4 1m-87 6c0 .5.5 1 1.1 1 .5 0 .7-.5.4-1-.3-.6-.8-1-1.1-1-.2 0-.4.4-.4 1m83.5 3.7c-1.2 2.8-1.4 4.3-.5 4.8.4.3 1-.2 1.4-1 .3-.8 0-1.5-.6-1.5-.7 0-.6-.5.2-1.5.7-.9 1.1-1.8.8-2.1s-.9.3-1.3 1.3m-80.2 1.1c.1 1.4.5 1.8 1.1 1.2.7-.7.6-1.4-.1-2.1-.9-.9-1.2-.7-1 .9m100.4 1.1c-.4 1.7-.3 2.1.5 1.3.5-.5.8-1.6.6-2.3-.3-.8-.7-.3-1.1 1M53 135.4c0 .8.4 1.7.9 2 .5.4.7-.3.4-1.4-.6-2.3-1.3-2.6-1.3-.6m97 .9c0 .8-1 1.8-2.2 2l-2.3.4 2.3.2c2.2.1 4.1-2.3 2.8-3.6-.3-.4-.6.1-.6 1m-72 1.8c0 .5.9.9 2 .9s2-.2 2-.4-.9-.6-2-.9-2-.1-2 .4m-3.9 1.5c0 1.1.3 1.4.6.6.3-.7.2-1.6-.1-1.9-.3-.4-.6.2-.5 1.3m6.9 1.3c0 .6.4 1.3 1 1.6s.7-.1.4-.9c-.7-1.8-1.4-2.1-1.4-.7m62-.4c0 .7 3 1.3 3.4.7.3-.4-.4-.9-1.5-.9-1-.1-1.9 0-1.9.2m-81.9 2.1c0 1.1.3 1.4.6.6.3-.7.2-1.6-.1-1.9-.3-.4-.6.2-.5 1.3M63 146c.8.5 2.2.9 3 .9 1 0 .8-.3-.5-.9-2.7-1.2-4.3-1.2-2.5 0m29.5 0c-.3.5-.1 1 .4 1 .6 0 1.1-.5 1.1-1 0-.6-.2-1-.4-1-.3 0-.8.4-1.1 1m37.7 1c0 1.4.2 1.9.5 1.2.2-.6.2-1.8 0-2.5-.3-.6-.5-.1-.5 1.3m35 2.2c-.7.7-1.2 1.6-1.2 2.1s.7.1 1.6-.8 1.4-1.8 1.2-2c-.2-.3-1 .1-1.6.7m-105.6.5c.7.4 1.4 1.7 1.7 2.8.5 1.6.5 1.5.4-.4-.1-1.4-.9-2.6-1.7-2.8-1-.3-1.1-.2-.4.4m102.5 2.9c0 1.1.3 1.4.6.6.3-.7.2-1.6-.1-1.9-.3-.4-.6.2-.5 1.3M70 154c0 .5.5 1 1.1 1 .5 0 .7-.5.4-1-.3-.6-.8-1-1.1-1-.2 0-.4.4-.4 1m3.1 4.6c0 1.1.3 1.4.6.6.3-.7.2-1.6-.1-1.9-.3-.4-.6.2-.5 1.3m2.5 3.2c-.3.4.4.9 1.5.9 2.3.2 2.5-.3.4-1-.8-.4-1.6-.3-1.9.1m9.2 2c.8.5 1.3 1.3 1.2 1.8 0 .5.7 1 1.7 1.1 1.7.3 1.7.2 0-.5-1-.4-1.8-1.2-1.7-1.7s-.4-1.1-1.2-1.3c-1.1-.3-1.1-.2 0 .6m4.8.5c.3 1 .9 1.5 1.2 1.2s0-1.1-.7-1.8c-1-.9-1.1-.8-.5.6m60.7.2c0 .8.7 1.5 1.5 1.5 1.2 0 1.2-.3.2-1.5-.7-.8-1.3-1.5-1.5-1.5-.1 0-.2.7-.2 1.5m-19.1 2.5c0 1.9.2 2.7.5 1.7.2-.9.2-2.5 0-3.5-.3-.9-.5-.1-.5 1.8m-53.6.3c.3 1 .9 1.5 1.2 1.2s0-1.1-.7-1.8c-1-.9-1.1-.8-.5.6m16.6 3.7c0 1.4.2 1.9.5 1.2.2-.6.2-1.8 0-2.5-.3-.6-.5-.1-.5 1.3"/><g fill="#FFF" stroke-width="0"><path d="M107.2 51.6c-.6.3-1 1-.6 1.5.3.5-2.9.9-7.4.9-7.1 0-8 .2-8.5 2-.4 1.6-1.4 2-4.6 2-3.4 0-4.1.3-4.1 2 0 1.3-.7 2-2 2-1.1 0-2 .7-2 1.5s-.6 1.2-1.4.9c-.7-.3-1.6.2-2 1.1-.4 1-1.2 1.5-2.1 1.1-1-.4-1.9.3-2.5 1.9-.5 1.4-1.4 2.5-1.9 2.5s-1.1.9-1.4 2c-.3 1.2-1.4 2-2.6 2-1.7 0-2.1.6-2.1 3.5 0 2.8-.4 3.5-2 3.5-1.7 0-2 .7-2 3.9 0 3-.4 4-2 4.4-1.5.4-2 1.4-2 3.8 0 1.8-.8 4.1-1.7 5.2-3.5 3.8-2.7 30.7.9 30.7.4 0 .8 1.3.8 3 0 1.6.9 4.5 2 6.5s2 4.2 2 5 .3 1.5.8 1.5c.4 0 1.5 1.8 2.5 4 1.2 2.8 2.3 4 3.7 4 1.3 0 2 .7 2 1.9s.7 1.8 1.8 1.7c1.2-.1 1.6.5 1.4 2.3-.3 1.6.1 2.2 1 1.9 1.9-.6 2.3-6.8.5-6.8-1.6 0-3-2.7-2.1-4.1.3-.5 0-.9-.5-.9-.6 0-1.1-.7-1.1-1.5 0-1-1-1.5-2.9-1.5-3.1 0-4.1-1.4-4.1-6.1V138h7c5.6 0 7 .3 7 1.5 0 .8.7 1.5 1.5 1.5.9 0 2 1.1 2.5 2.5s1.4 2.5 1.9 2.5 1.1.9 1.4 2c.4 1.7 1.4 2 5.5 2 3.5 0 5.2-.4 5.6-1.5.3-1-.3-1.7-1.9-2.1-1.4-.3-2.3-1-2-1.4.9-1.4-2.5-3.2-5.1-2.7-2 .3-2.8 0-3.1-1.4-.3-1.1-1.2-1.9-1.9-1.9-.8 0-1.4-.9-1.4-2 0-1.3-1-2.4-2.5-3s-2.5-1.7-2.5-2.9c0-1.1-.8-2.7-1.7-3.7-1.5-1.5-1.8-3.8-1.9-15.1-.1-12.5 0-13.5 2-14.9 1.8-1.3 2.1-2.4 2.1-9.9 0-5.4.4-8.8 1.3-9.6.6-.7 1.2-1.9 1.2-2.6 0-1 2-1.3 7.6-1.3 6.2 0 7.5.3 7.1 1.4-.8 1.9 2.1 2.8 7.6 2.5 2.4-.2 4.8 0 5.4.4.5.3 1.3.3 1.7 0 1-1 9.6-1 9.6 0 0 .4 1 .3 2.1-.4 2.4-1.2 8.9-.6 9.9 1.1.6 1 8.7-2.4 10-4.2.3-.4 3.4-.8 6.9-1 7.4-.4 7.1-.8 7.8 11.4.3 5.5.8 7.8 1.7 7.8.8 0 1.6 1.7 2 3.9.3 2.1 1.2 4.1 1.9 4.4 1.6.6 1.7 20.5.1 21.5-1.2.7-2.7 6-2.8 9.7-.1 1.3-.7 1.9-1.8 1.7q-1.8-.3-1.8 1.8c0 1.1-.8 2.4-1.7 2.7-1 .4-2.4 1.5-3.2 2.6-.9 1.3-2 1.7-3.7 1.3-1.2-.3-2.6-.2-2.9.4-.3.5-1.5 1-2.6 1-1 0-1.9.4-1.9 1 0 .5-.8 1-1.8 1-1.7 0-1.8.9-1.5 11.7.2 6.5.6 12.8.9 14 .6 2.8 3 3 4.6.3.9-1.3 2.4-2 4.4-2 2.3 0 3.3-.5 3.7-2 .3-1.2 1.4-2 2.6-2s2-.5 1.8-1.2c-.1-.7.5-1.3 1.3-1.4 3.4-.3 6-1.7 6.5-3.5.4-1 1.2-1.9 2-1.9 1.5 0 2.5-2.2 2.5-5.5 0-1.4.7-2.5 2-2.8 1.2-.3 2-1.4 2-2.5q0-1.95 1.8-1.8c1.3.1 1.8-.8 2-3.9.2-2.2.7-4.2 1-4.5 2-1.5 3.2-5.6 3.1-10.1-.2-3.5.2-5.4 1.2-6 1.2-.7 1.2-1.2.1-3-1-1.5-1.1-2.4-.3-3.2 1.4-1.4 1.5-8.7.1-8.7-.5 0-1-2.6-1.2-5.8-.2-3.1-.7-5.5-1.2-5.4-1.2.5-2.6-1.9-2.6-4.5 0-1.2-.9-3.8-2-5.8s-2-4.2-2-5-.8-1.5-1.9-1.5c-1 0-2.1-.9-2.4-2s-1.2-2-2.1-2-1.6-.7-1.6-1.5-.9-1.5-2-1.5c-1.4 0-2-.7-2-2.1 0-1.2-.8-2.3-1.9-2.6s-2.1-1.3-2.4-2.4-1.4-1.9-2.6-1.9-2.1-.3-2.1-.8c0-1-5-3.2-7.2-3.2-1 0-1.7-.5-1.5-1.2.2-1.2-4.6-2.6-10.8-2.9-2.2-.2-4.3-.6-4.6-1.1-.6-1-11.9-2-13.7-1.2"/><path d="M75 163.5c-1.2 1.4-.3 2.5 1.9 2.5.9 0 2.2.9 2.9 2 .7 1.2 2.3 2 3.8 2 1.7 0 2.8.7 3.1 2 .4 1.4 1.4 2 3.4 2 3.4 0 4.4-1.8 3.5-5.6-.6-2.4-1-2.5-4.2-2-2.5.5-3.6.3-4-.8-.9-2.4-8.8-4-10.4-2.1"/></g><path fill="#FFF" fill-opacity=".9" d="M69.1 123.6c0 1.1.3 1.4.6.6.3-.7.2-1.6-.1-1.9-.3-.4-.6.2-.5 1.3m9 20c0 1.1.3 1.4.6.6.3-.7.2-1.6-.1-1.9-.3-.4-.6.2-.5 1.3m-12 12c0 1.1.3 1.4.6.6.3-.7.2-1.6-.1-1.9-.3-.4-.6.2-.5 1.3"/><path fill="gray" fill-opacity=".5" d="M88.3 153.7c.9.2 2.3.2 3 0 .6-.3-.1-.5-1.8-.5-1.6 0-2.2.2-1.2.5m4.5 23c.7.3 1.6.2 1.9-.1.4-.3-.2-.6-1.3-.5-1.1 0-1.4.3-.6.6"/><path fill="gray" fill-opacity=".8" d="M111.3 80.7c.9.2 2.5.2 3.5 0 .9-.3.1-.5-1.8-.5s-2.7.2-1.7.5m-22.5 82c.7.3 1.6.2 1.9-.1.4-.3-.2-.6-1.3-.5-1.1 0-1.4.3-.6.6"/><path fill="gray" fill-opacity=".3" d="M71.2 110.5c0 1.6.2 2.2.5 1.2.2-.9.2-2.3 0-3-.3-.6-.5.1-.5 1.8"/><path fill="gray" fill-opacity=".2" d="M71.1 114.6c0 1.1.3 1.4.6.6.3-.7.2-1.6-.1-1.9-.3-.4-.6.2-.5 1.3"/></svg>